<?xml version="1.0" encoding="UTF-8"?>
<svg width="24px" height="24px" viewBox="0 0 24 24" version="1.1" xmlns="http://www.w3.org/2000/svg" xmlns:xlink="http://www.w3.org/1999/xlink">
    <title>消息</title>
    <g id="消息" stroke="none" stroke-width="1" fill="none" fill-rule="evenodd">
        <g>
            <rect id="矩形" fill="#000000" fill-rule="nonzero" opacity="0" x="0" y="0" width="24" height="24"></rect>
            <path d="M12,3.68604 C14.44572,3.68604 16.72968,4.43352 18.43116,5.79084 C20.02248,7.06032 20.89896,8.71476 20.89896,10.44912 C20.89896,12.18348 20.0226,13.83792 18.43116,15.1074 C16.72968,16.46472 14.44572,17.2122 12,17.2122 C10.84344,17.2122 9.68304,18.07572 8.33952,19.07568 C8.11596,19.242 7.83444,19.45164 7.55292,19.65204 L7.55388,19.45632 C7.56288,17.96556 7.57212,16.42416 6.37728,15.67824 C4.29528,14.37852 3.10116,12.47256 3.10116,10.44912 C3.10116,8.71464 3.97752,7.06032 5.56896,5.79084 C7.27032,4.43364 9.55428,3.68604 12,3.68604 M12,2.025 C6.16788,2.025 1.44,5.79672 1.44,10.44924 C1.44,13.14528 3.0276,15.54552 5.49768,17.08752 C6.35436,17.62224 5.38392,21.6474 6.42348,21.9522 C6.4764,21.96768 6.53352,21.97512 6.59484,21.97512 C7.84932,21.97512 10.77936,18.8736 12.00012,18.8736 C17.83224,18.8736 22.56012,15.10188 22.56012,10.44936 C22.56012,5.7966 17.83212,2.025 12,2.025 Z" id="形状" fill="#8A8F99"></path>
            <path d="M15.48,9.70524 L8.52,9.70524 C8.05608081,9.70524 7.68,9.32915919 7.68,8.86524 C7.68,8.40132081 8.05608081,8.02524 8.52,8.02524 L15.48,8.02524 C15.9439192,8.02524 16.32,8.40132081 16.32,8.86524 C16.32,9.32915919 15.9439192,9.70524 15.48,9.70524 Z M14.4,13.54524 L9.6,13.54524 C9.13608081,13.54524 8.76,13.1691592 8.76,12.70524 C8.76,12.2413208 9.13608081,11.86524 9.6,11.86524 L14.4,11.86524 C14.8639192,11.86524 15.24,12.2413208 15.24,12.70524 C15.24,13.1691592 14.8639192,13.54524 14.4,13.54524 L14.4,13.54524 Z" id="形状" fill="#8A8F99"></path>
        </g>
    </g>
</svg>