<?xml version="1.0" encoding="UTF-8"?>
<svg width="36px" height="36px" viewBox="0 0 36 36" version="1.1" xmlns="http://www.w3.org/2000/svg" xmlns:xlink="http://www.w3.org/1999/xlink">
    <title>邮箱</title>
    <g id="页面-1" stroke="none" stroke-width="1" fill="none" fill-rule="evenodd">
        <g id="Apple-TV备份-2" transform="translate(-284.000000, -1374.000000)">
            <g id="编组-2" transform="translate(59.000000, 1343.000000)">
                <g id="邮箱" transform="translate(225.000000, 31.000000)">
                    <rect id="矩形" fill="#000000" fill-rule="nonzero" opacity="0" x="0" y="0" width="36" height="36"></rect>
                    <path d="M18,0 C8.0588745,0 0,8.0588745 0,18 C0,27.9411255 8.0588745,36 18,36 C27.9411255,36 36,27.9411255 36,18 C36,8.0588745 27.9411255,0 18,0 Z M26.234,26.227 L9.766,26.227 C8.64627725,26.2382844 7.72661886,25.4310982 7.7075,24.42025 L7.71746852,14.4945 L17.7507869,19.3005 C17.9051651,19.374106 18.0898507,19.374106 18.2442288,19.3005 L28.2925,14.49 L28.2925,24.4225 C28.2720283,25.4324645 27.3527678,26.2382966 26.234,26.227 Z M18.0045,17.60175 L7.7165,12.56175 C7.74100957,11.5590516 8.65425909,10.760649 9.76512791,10.77075 L26.2339031,10.77075 C27.357907,10.77075 28.2775465,11.57175 28.2925,12.555 L18.0045,17.604 L18.0045,17.60175 Z" id="形状" fill="#8A8F99"></path>
                </g>
            </g>
        </g>
    </g>
</svg>