<?xml version="1.0" encoding="UTF-8"?>
<svg width="16px" height="16px" viewBox="0 0 16 16" version="1.1" xmlns="http://www.w3.org/2000/svg" xmlns:xlink="http://www.w3.org/1999/xlink">
    <title>看</title>
    <g id="看" stroke="none" stroke-width="1" fill="none" fill-rule="evenodd">
        <g>
            <rect id="矩形" fill="#000000" fill-rule="nonzero" opacity="0" x="0" y="0" width="16" height="16"></rect>
            <path d="M15.1296875,8.2921875 C15.1296875,8.16875 15.09375,8.0515625 15.0328125,7.9546875 C13.5875,5.5390625 10.9453125,3.9203125 7.925,3.9203125 C4.91875,3.9203125 2.2875,5.5234375 0.8375,7.9203125 L0.8453125,7.925 C0.771875,8.028125 0.7296875,8.1546875 0.7296875,8.2921875 C0.7296875,8.409375 0.7609375,8.5203125 0.8171875,8.615625 L0.8125,8.61875 C2.25625,11.0390625 4.9015625,12.6609375 7.925,12.6609375 C10.93125,12.6609375 13.5625,11.059375 15.0109375,8.6625 C15.0859375,8.5578125 15.1296875,8.4296875 15.1296875,8.2921875 Z" id="路径" fill="#8A8F99"></path>
            <path d="M10.0859375,8.8796875 C10.0859375,8.5265625 9.8,8.240625 9.446875,8.240625 C9.1703125,8.240625 8.934375,8.4171875 8.8453125,8.6625 L8.84375,8.6625 C8.6984375,9.0390625 8.3328125,9.30625 7.9046875,9.30625 C7.3484375,9.30625 6.896875,8.8546875 6.896875,8.2984375 C6.896875,7.7421875 7.3484375,7.290625 7.9046875,7.290625 C8.096875,7.290625 8.2765625,7.3453125 8.4296875,7.4390625 C8.5375,7.521875 8.6734375,7.571875 8.8203125,7.571875 C9.1734375,7.571875 9.459375,7.2859375 9.459375,6.9328125 C9.459375,6.6828125 9.315625,6.465625 9.10625,6.3609375 C8.7578125,6.14375 8.3453125,6.01875 7.9046875,6.01875 C6.6453125,6.01875 5.625,7.0390625 5.625,8.2984375 C5.625,9.5578125 6.6453125,10.578125 7.9046875,10.578125 C8.834375,10.578125 9.6328125,10.021875 9.9890625,9.225 L9.9859375,9.2234375 C10.0484375,9.125 10.0859375,9.00625 10.0859375,8.8796875 L10.0859375,8.8796875 Z" id="路径" fill="#25282E" fill-rule="nonzero"></path>
        </g>
    </g>
</svg>