<?xml version="1.0" encoding="UTF-8"?>
<svg width="24px" height="24px" viewBox="0 0 24 24" version="1.1" xmlns="http://www.w3.org/2000/svg" xmlns:xlink="http://www.w3.org/1999/xlink">
    <title>失败</title>
    <g id="失败" stroke="none" stroke-width="1" fill="none" fill-rule="evenodd">
        <g fill-rule="nonzero">
            <rect id="矩形" fill="#000000" opacity="0" x="0" y="0" width="24" height="24"></rect>
            <path d="M12,0.000140625 C5.37264844,0.000140625 0.000140625,5.37264844 0.000140625,12 C0.000140625,18.6273281 5.37267188,23.9998359 12,23.9998359 C18.6273281,23.9998359 23.9998359,18.6273047 23.9998359,12 C23.9998359,5.37264844 18.6273281,0.000140625 12,0.000140625 Z M17.5728047,16.2469922 C17.9389219,16.6131094 17.9389219,17.2066875 17.5728047,17.5728047 C17.3897344,17.755875 17.1498281,17.8473984 16.9098984,17.8473984 C16.6699688,17.8473984 16.4300391,17.755875 16.2469922,17.5728047 L12,13.3258125 L7.75300781,17.5727813 C7.5699375,17.7558516 7.33003125,17.8473984 7.09010156,17.8473984 C6.85017188,17.8473984 6.61024219,17.7558516 6.42719531,17.5727813 C6.06107813,17.2066641 6.06107813,16.6130859 6.42719531,16.2469688 L10.6741875,12 L6.42719531,7.75300781 C6.06107813,7.38689063 6.06107813,6.79328906 6.42719531,6.42719531 C6.7933125,6.06107813 7.38689063,6.06107813 7.75300781,6.42719531 L12,10.6741875 L16.2469922,6.42717187 C16.6131094,6.06105469 17.2066875,6.06105469 17.5728047,6.42717187 C17.9389219,6.79328906 17.9389219,7.38686719 17.5728047,7.75298437 L13.3258125,12 L17.5728047,16.2469922 L17.5728047,16.2469922 Z" id="形状" fill="#FF6257"></path>
        </g>
    </g>
</svg>