<?xml version="1.0" encoding="UTF-8"?>
<svg width="24px" height="24px" viewBox="0 0 24 24" version="1.1" xmlns="http://www.w3.org/2000/svg" xmlns:xlink="http://www.w3.org/1999/xlink">
    <title>拼团-团购成功</title>
    <g id="拼团-团购成功" stroke="none" stroke-width="1" fill="none" fill-rule="evenodd">
        <g>
            <rect id="矩形" fill="#000000" fill-rule="nonzero" opacity="0" x="0" y="0" width="24" height="24"></rect>
            <path d="M12,0.000431976562 C5.37274371,0.000431976562 0.000419976563,5.37275571 0.000419976563,12.000012 C0.000419976563,18.6272683 5.37274371,23.999592 12,23.999592 C18.6267283,23.999592 23.99958,18.6272923 23.99958,12.000012 C23.99958,5.37275571 18.6267283,0.000431976562 12,0.000431976562 Z M17.8943263,8.46159708 C16.8412735,9.86940335 13.0935152,14.2664311 11.1695861,16.2702769 C10.3242687,16.9371616 9.90294199,16.5813522 9.70691803,16.3975917 C8.52976629,15.2039046 7.05003497,13.2799755 6.42099675,12.3521016 C6.2830504,12.2146592 6.32672862,12.0607295 6.44391581,11.9350467 C6.63885982,11.732639 6.93500768,11.4247556 7.12783978,11.2260677 C7.28443336,11.0913133 7.4005646,11.1072966 7.58590901,11.2420511 C8.18353252,11.707584 9.60785011,12.8176345 10.1495559,13.2394892 C10.4350482,13.4621281 10.2742068,13.488767 10.6316001,13.1590445 C11.7011643,12.1725889 15.660378,8.52176262 16.8231543,7.44900661 C17.243929,7.11398034 17.586971,7.60826407 17.4229137,7.43782308 C17.5443727,7.56352992 17.7797791,7.80853587 17.9012381,7.93529869 C17.998722,8.04185428 18.0525278,8.28474832 17.8943263,8.46159708 Z" id="形状" fill="#07C7AD"></path>
        </g>
    </g>
</svg>