<?xml version="1.0" encoding="UTF-8"?>
<svg width="16px" height="16px" viewBox="0 0 16 16" version="1.1" xmlns="http://www.w3.org/2000/svg" xmlns:xlink="http://www.w3.org/1999/xlink">
    <title>退出登录</title>
    <g id="退出登录" stroke="none" stroke-width="1" fill="none" fill-rule="evenodd">
        <g fill-rule="nonzero">
            <rect id="矩形" fill="#000000" opacity="0" x="0" y="0" width="16" height="16"></rect>
            <path d="M15.008,8.433 L12.746,10.696 L11.992,9.942 L12.933,9 L8,9 L8,8 L13.09,8 L11.992,6.902 L12.746,6.148 L15.008,8.41 L14.997,8.422 L15.008,8.433 Z M11,3 C11,2.44771525 10.5522847,2 10,2 L3,2 C2.44771525,2 2,2.44771525 2,3 L2,13 C2,13.5522847 2.44771525,14 3,14 L10,14 C10.5522847,14 11,13.5522847 11,13 L11,12 L12,12 L12,13 C12,14.1045695 11.1045695,15 10,15 L3,15 C1.8954305,15 1,14.1045695 1,13 L1,3 C1,1.8954305 1.8954305,1 3,1 L10,1 C11.1045695,1 12,1.8954305 12,3 L12,5 L11,5 L11,3 Z" id="形状" fill="#B8BECC"></path>
        </g>
    </g>
</svg>