<?xml version="1.0" encoding="UTF-8"?>
<svg width="36px" height="36px" viewBox="0 0 36 36" version="1.1" xmlns="http://www.w3.org/2000/svg" xmlns:xlink="http://www.w3.org/1999/xlink">
    <title>微博</title>
    <g id="页面-1" stroke="none" stroke-width="1" fill="none" fill-rule="evenodd">
        <g id="Apple-TV备份-2" transform="translate(-387.000000, -1374.000000)">
            <g id="编组-2" transform="translate(59.000000, 1343.000000)">
                <g id="微博" transform="translate(328.000000, 31.000000)">
                    <rect id="矩形" fill="#000000" fill-rule="nonzero" opacity="0" x="0" y="0" width="36" height="36"></rect>
                    <path d="M14.4587368,21.3626842 C13.8268421,21.0988421 13.0106842,21.3707368 12.6213158,21.9794211 C12.2267368,22.5909474 12.4119474,23.319 13.0386316,23.6036842 C13.6752632,23.8931053 14.5198421,23.6183684 14.9139474,22.9912105 C15.3018947,22.3574211 15.0977368,21.6341053 14.4587368,21.3626842 Z M16.0152632,20.7194211 C15.7732105,20.6237368 15.4700526,20.7397895 15.3279474,20.9771053 C15.1901053,21.2158421 15.2663684,21.4877368 15.5088947,21.5876842 C15.7556842,21.6890526 16.0716316,21.5715789 16.2137368,21.3285789 C16.3501579,21.0846316 16.2615789,20.8094211 16.0152632,20.7194211 Z M15.03,16.4993684 C10.953,16.9015263 7.86078946,19.3897895 8.12605264,22.0566316 C8.3908421,24.7253684 11.9107895,26.5623158 15.9887368,26.1611053 C20.0666842,25.7589474 23.1579474,23.2706842 22.8931579,20.6014737 C22.6288421,17.9346316 19.1088947,16.0976842 15.03,16.4993684 Z M18.6082105,22.7917895 C17.7759474,24.6675789 15.3819474,25.6675263 13.3512632,25.0147895 C11.3911579,24.3843158 10.5607895,22.455 11.419579,20.7170526 C12.2617895,19.0132105 14.4554211,18.0497368 16.3956316,18.5527895 C18.4045263,19.0700526 19.4295789,20.9581579 18.6082105,22.7917895 Z M18,0 C8.05926315,0 0,8.05878946 0,18 C0,27.9407368 8.05926315,36 18,36 C27.9412105,36 36,27.9407368 36,18 C36,8.05878946 27.9412105,0 18,0 Z M16.0147895,27.9483158 C10.9046842,27.9483158 5.68089471,25.4804211 5.68089471,21.4209474 C5.68089471,19.2988421 7.03042102,16.8442105 9.35384207,14.5278947 C12.4564737,11.4366316 16.0744737,10.0283684 17.4353684,11.385 C18.036,11.9827895 18.0942631,13.0182632 17.7082105,14.2545789 C17.5068947,14.8765263 18.2941578,14.5321579 18.2941578,14.5335789 C20.8023157,13.4872105 22.9897894,13.4256316 23.789842,14.5638947 C24.2166315,15.1702105 24.1749473,16.0218947 23.7822631,17.0076316 C23.6003683,17.4618947 23.8381578,17.5324737 24.1853683,17.6362105 C25.5978946,18.0729474 27.1709999,19.1287895 27.1709999,20.9894211 C27.1700526,24.0693158 22.7141053,27.9483158 16.0147895,27.9483158 Z M25.2658421,15.0399474 C25.4316316,14.5316842 25.3278947,13.9514211 24.9423158,13.5260526 C24.5572105,13.1016316 23.9883158,12.9401053 23.4644211,13.0504737 L23.4644211,13.0495263 C23.0262632,13.1442632 22.5952105,12.8643158 22.5014211,12.4285263 C22.4076316,11.9903684 22.6871053,11.5602632 23.1252632,11.4674211 C24.1986316,11.2400526 25.3610526,11.5706842 26.1483158,12.4417895 C26.9374737,13.3124211 27.1487368,14.4980526 26.811,15.5377895 C26.6736316,15.9631579 26.2155789,16.1962105 25.7892632,16.0597895 C25.3624737,15.9219474 25.1289474,15.4648421 25.2663158,15.0404211 L25.2658421,15.0404211 L25.2658421,15.0399474 Z M29.9974737,16.5633158 C29.997,16.5637895 29.997,16.5661579 29.997,16.5671053 C29.8364211,17.0602105 29.304,17.3302105 28.8094737,17.1705789 C28.3125789,17.0104737 28.0411579,16.4818421 28.2012632,15.9868421 L28.2012632,15.9863684 C28.6934211,14.4686842 28.3812632,12.7368947 27.2321053,11.4664737 C26.082,10.1965263 24.3862105,9.71147366 22.8197368,10.0430526 C22.3105263,10.1515263 21.8088947,9.8275263 21.7004211,9.31973681 C21.5914737,8.81336841 21.9164211,8.31315786 22.4261053,8.20468417 L22.4270526,8.20468417 C24.6287368,7.73810522 27.0156316,8.41973681 28.6337368,10.207421 C30.2513684,11.9922632 30.6876316,14.4274737 29.9974737,16.5633158 Z" id="形状" fill="#8A8F99"></path>
                </g>
            </g>
        </g>
    </g>
</svg>